<svg width="462" height="338" viewBox="0 0 462 338" fill="none" xmlns="http://www.w3.org/2000/svg">
<rect width="462" height="338" fill="#E5E5E5"/>
<path id="Vector" d="M359.257 165.076C330.019 143.219 284.225 122.547 233.617 108.363C187.539 95.4473 142.596 89.2118 107.057 90.8041L106.872 86.6712C142.834 85.0606 188.244 91.3485 234.734 104.379C285.813 118.696 332.103 139.612 361.734 161.763L359.257 165.076Z" fill="#CCCCCC"/>
<path id="Vector_2" d="M356.221 181.913C356.247 201.278 352.187 220.432 344.307 238.121C343.649 239.602 342.964 241.07 342.251 242.523C328.544 270.597 305.729 293.198 277.528 306.641C249.326 320.083 217.402 323.573 186.962 316.541C156.523 309.509 129.364 292.371 109.915 267.921C90.467 243.472 79.8768 213.154 79.8723 181.913C79.8723 178.715 79.9812 175.542 80.1991 172.393C80.3025 170.792 80.4364 169.201 80.6005 167.619C84.2647 132.402 101.308 99.9342 128.214 76.9171C155.121 53.9 189.836 42.0898 225.196 43.9235C260.557 45.7572 293.864 61.095 318.245 86.7717C342.626 112.448 356.22 146.505 356.221 181.913V181.913Z" fill="#6C63FF"/>
<path id="Vector_3" opacity="0.1" d="M344.307 238.121C343.649 239.602 342.964 241.07 342.251 242.523C338.213 242.962 333.963 243.28 329.501 243.479C325.806 243.644 322.004 243.727 318.12 243.727C284.189 243.727 243.353 237.464 201.635 225.773C155.144 212.741 113.084 194.514 83.1984 174.445C82.1807 173.763 81.1809 173.079 80.1991 172.393C80.3025 170.792 80.4364 169.201 80.6005 167.619C82.1849 168.749 83.819 169.88 85.5027 171.012C115.036 190.84 156.675 208.873 202.753 221.789C244.105 233.381 284.557 239.59 318.099 239.59C321.934 239.59 325.673 239.509 329.315 239.346C334.618 239.106 339.616 238.698 344.307 238.121Z" fill="black"/>
<path id="Vector_4" d="M318.12 240.418C284.19 240.419 243.352 234.155 201.637 222.463C155.146 209.432 113.084 191.204 83.1978 171.136C52.6884 150.65 38.3819 130.463 42.9135 114.295C47.445 98.1268 70.1593 88.3164 106.872 86.6711L107.057 90.8041C89.9126 91.5723 75.9407 94.1205 65.5294 98.3779C55.1434 102.625 48.8745 108.356 46.8969 115.412C44.9194 122.467 47.2965 130.621 53.9621 139.648C60.6441 148.696 71.2563 158.135 85.504 167.702C115.034 187.531 156.674 205.564 202.753 218.479C244.107 230.07 284.555 236.281 318.1 236.282C321.933 236.282 325.671 236.201 329.313 236.038C346.458 235.269 360.43 232.721 370.841 228.464C381.227 224.217 387.496 218.486 389.474 211.43C393.025 198.761 382.293 182.299 359.257 165.076L361.734 161.763C373.589 170.626 382.364 179.362 387.816 187.728C393.661 196.697 395.559 205.048 393.457 212.547C388.926 228.715 366.211 238.525 329.499 240.171C325.805 240.336 322.005 240.418 318.12 240.418Z" fill="#CCCCCC"/>
<path id="Vector_5" d="M221.702 18.8182C222.576 18.8182 223.285 18.1093 223.285 17.2348C223.285 16.3604 222.576 15.6515 221.702 15.6515C220.828 15.6515 220.119 16.3604 220.119 17.2348C220.119 18.1093 220.828 18.8182 221.702 18.8182Z" fill="#F2F2F2"/>
<path id="Vector_6" d="M11.645 87.5247C13.1494 87.5247 14.3689 86.3051 14.3689 84.8008C14.3689 83.2964 13.1494 82.0769 11.645 82.0769C10.1407 82.0769 8.92111 83.2964 8.92111 84.8008C8.92111 86.3051 10.1407 87.5247 11.645 87.5247Z" fill="#CCCCCC"/>
<path id="Vector_7" d="M5.83942 196.794C8.81127 196.794 11.2204 194.384 11.2204 191.413C11.2204 188.441 8.81127 186.032 5.83942 186.032C2.86757 186.032 0.458405 188.441 0.458405 191.413C0.458405 194.384 2.86757 196.794 5.83942 196.794Z" fill="#CCCCCC"/>
<path id="Vector_8" d="M328.842 30.3212C330.822 30.3212 332.428 28.7156 332.428 26.7349C332.428 24.7542 330.822 23.1486 328.842 23.1486C326.861 23.1486 325.255 24.7542 325.255 26.7349C325.255 28.7156 326.861 30.3212 328.842 30.3212Z" fill="#CCCCCC"/>
<path id="Vector_9" d="M456.037 181.402C459.253 181.402 461.86 178.795 461.86 175.579C461.86 172.363 459.253 169.756 456.037 169.756C452.821 169.756 450.214 172.363 450.214 175.579C450.214 178.795 452.821 181.402 456.037 181.402Z" fill="#CCCCCC"/>
<path id="Vector_10" d="M410.506 85.0782C411.885 85.0782 413.004 83.9597 413.004 82.58C413.004 81.2003 411.885 80.0818 410.506 80.0818C409.126 80.0818 408.007 81.2003 408.007 82.58C408.007 83.9597 409.126 85.0782 410.506 85.0782Z" fill="#CCCCCC"/>
<path id="Vector_11" d="M107.173 54.3824C109.326 54.3824 111.071 52.6375 111.071 50.4851C111.071 48.3326 109.326 46.5877 107.173 46.5877C105.021 46.5877 103.276 48.3326 103.276 50.4851C103.276 52.6375 105.021 54.3824 107.173 54.3824Z" fill="#CCCCCC"/>
<path id="Vector_12" d="M401.762 166.271C403.142 166.271 404.26 165.152 404.26 163.772C404.26 162.393 403.142 161.274 401.762 161.274C400.382 161.274 399.264 162.393 399.264 163.772C399.264 165.152 400.382 166.271 401.762 166.271Z" fill="#CCCCCC"/>
<path id="Vector_13" d="M18.5062 270.523C20.2235 270.523 21.6156 269.13 21.6156 267.413C21.6156 265.696 20.2235 264.304 18.5062 264.304C16.7889 264.304 15.3968 265.696 15.3968 267.413C15.3968 269.13 16.7889 270.523 18.5062 270.523Z" fill="#CCCCCC"/>
<path id="Vector_14" d="M81.3122 314.059C83.1719 314.059 84.6794 312.551 84.6794 310.691C84.6794 308.832 83.1719 307.324 81.3122 307.324C79.4525 307.324 77.9449 308.832 77.9449 310.691C77.9449 312.551 79.4525 314.059 81.3122 314.059Z" fill="#CCCCCC"/>
<path id="Vector_15" d="M333.342 331.201H329.168V327.029H326.93V331.201H322.758V333.44H326.93V337.612H329.168V333.44H333.342V331.201Z" fill="#CCCCCC"/>
<path id="Vector_16" d="M429.646 309.844H426.527V306.725H424.852V309.844H421.733V311.519H424.852V314.638H426.527V311.519H429.646V309.844Z" fill="#CCCCCC"/>
<path id="Vector_17" opacity="0.1" d="M220.119 85.3286C226.531 85.3286 231.73 80.13 231.73 73.7174C231.73 67.3047 226.531 62.1062 220.119 62.1062C213.706 62.1062 208.508 67.3047 208.508 73.7174C208.508 80.13 213.706 85.3286 220.119 85.3286Z" fill="black"/>
<path id="Vector_18" opacity="0.1" d="M130.924 170.301C137.336 170.301 142.535 165.103 142.535 158.69C142.535 152.277 137.336 147.079 130.924 147.079C124.511 147.079 119.312 152.277 119.312 158.69C119.312 165.103 124.511 170.301 130.924 170.301Z" fill="black"/>
<path id="Vector_19" opacity="0.1" d="M259.174 286.941C265.587 286.941 270.786 281.743 270.786 275.33C270.786 268.917 265.587 263.719 259.174 263.719C252.762 263.719 247.563 268.917 247.563 275.33C247.563 281.743 252.762 286.941 259.174 286.941Z" fill="black"/>
<path id="Vector_20" opacity="0.1" d="M220.119 188.246C226.531 188.246 231.73 183.047 231.73 176.635C231.73 170.222 226.531 165.024 220.119 165.024C213.706 165.024 208.508 170.222 208.508 176.635C208.508 183.047 213.706 188.246 220.119 188.246Z" fill="black"/>
<path id="Vector_21" opacity="0.1" d="M136.729 252.107C143.142 252.107 148.34 246.909 148.34 240.496C148.34 234.084 143.142 228.885 136.729 228.885C130.317 228.885 125.118 234.084 125.118 240.496C125.118 246.909 130.317 252.107 136.729 252.107Z" fill="black"/>
<path id="Vector_22" opacity="0.1" d="M282.397 125.968C288.81 125.968 294.008 120.769 294.008 114.357C294.008 107.944 288.81 102.745 282.397 102.745C275.984 102.745 270.786 107.944 270.786 114.357C270.786 120.769 275.984 125.968 282.397 125.968Z" fill="black"/>
<path id="Vector_23" opacity="0.1" d="M320.925 204.607C327.338 204.607 332.536 199.409 332.536 192.996C332.536 186.583 327.338 181.385 320.925 181.385C314.512 181.385 309.314 186.583 309.314 192.996C309.314 199.409 314.512 204.607 320.925 204.607Z" fill="black"/>
<g id="location-pins">
<path id="Vector_24" d="M220.119 141.273C228.572 141.273 235.424 134.421 235.424 125.968C235.424 117.515 228.572 110.662 220.119 110.662C211.666 110.662 204.813 117.515 204.813 125.968C204.813 134.421 211.666 141.273 220.119 141.273Z" fill="white"/>
<path id="Vector_25" d="M220.119 103.801C214.38 103.801 208.876 106.081 204.818 110.139C200.76 114.197 198.48 119.701 198.48 125.44C198.48 137.391 220.119 176.635 220.119 176.635C220.119 176.635 241.758 137.391 241.758 125.44C241.758 119.701 239.478 114.197 235.42 110.139C231.362 106.081 225.858 103.801 220.119 103.801ZM220.119 135.996C218.135 135.996 216.197 135.407 214.548 134.306C212.898 133.204 211.613 131.638 210.854 129.805C210.095 127.973 209.897 125.957 210.284 124.011C210.67 122.066 211.626 120.279 213.028 118.877C214.43 117.475 216.217 116.519 218.162 116.133C220.108 115.746 222.124 115.944 223.956 116.703C225.789 117.462 227.355 118.747 228.457 120.397C229.558 122.046 230.147 123.984 230.147 125.968C230.147 127.285 229.887 128.589 229.383 129.805C228.879 131.022 228.141 132.127 227.21 133.058C226.278 133.99 225.173 134.728 223.956 135.232C222.74 135.736 221.436 135.996 220.119 135.996Z" fill="#CCCCCC"/>
<path id="Vector_26" d="M136.729 206.718C145.182 206.718 152.035 199.866 152.035 191.413C152.035 182.96 145.182 176.107 136.729 176.107C128.276 176.107 121.424 182.96 121.424 191.413C121.424 199.866 128.276 206.718 136.729 206.718Z" fill="white"/>
<path id="Vector_27" d="M136.729 169.246C130.99 169.246 125.486 171.526 121.428 175.584C117.37 179.642 115.09 185.146 115.09 190.885C115.09 202.836 136.729 242.08 136.729 242.08C136.729 242.08 158.368 202.836 158.368 190.885C158.368 188.043 157.809 185.229 156.721 182.604C155.634 179.979 154.04 177.593 152.03 175.584C150.021 173.574 147.635 171.98 145.01 170.893C142.385 169.805 139.571 169.246 136.729 169.246ZM136.729 201.44C134.746 201.44 132.807 200.852 131.158 199.75C129.509 198.649 128.224 197.082 127.465 195.25C126.706 193.418 126.507 191.401 126.894 189.456C127.281 187.511 128.236 185.724 129.638 184.322C131.041 182.919 132.828 181.964 134.773 181.577C136.718 181.19 138.734 181.389 140.567 182.148C142.399 182.907 143.965 184.192 145.067 185.841C146.169 187.49 146.757 189.429 146.757 191.413C146.757 192.729 146.498 194.033 145.994 195.25C145.49 196.467 144.751 197.572 143.82 198.503C142.889 199.435 141.783 200.173 140.567 200.677C139.35 201.181 138.046 201.44 136.729 201.44Z" fill="#CCCCCC"/>
<path id="Vector_28" d="M320.925 159.218C329.378 159.218 336.231 152.365 336.231 143.912C336.231 135.459 329.378 128.607 320.925 128.607C312.472 128.607 305.619 135.459 305.619 143.912C305.619 152.365 312.472 159.218 320.925 159.218Z" fill="white"/>
<path id="Vector_29" d="M320.925 121.745C318.083 121.745 315.269 122.305 312.644 123.393C310.019 124.48 307.633 126.074 305.624 128.083C303.614 130.093 302.021 132.478 300.933 135.104C299.846 137.729 299.286 140.543 299.286 143.385C299.286 155.335 320.925 194.579 320.925 194.579C320.925 194.579 342.564 155.335 342.564 143.385C342.564 140.543 342.004 137.729 340.917 135.104C339.829 132.478 338.235 130.093 336.226 128.083C334.217 126.074 331.831 124.48 329.206 123.393C326.581 122.305 323.767 121.745 320.925 121.745ZM320.925 153.94C318.942 153.94 317.003 153.352 315.354 152.25C313.705 151.148 312.419 149.582 311.66 147.75C310.901 145.917 310.703 143.901 311.09 141.956C311.477 140.011 312.432 138.224 313.834 136.821C315.237 135.419 317.023 134.464 318.969 134.077C320.914 133.69 322.93 133.889 324.763 134.648C326.595 135.407 328.161 136.692 329.263 138.341C330.365 139.99 330.953 141.929 330.953 143.912C330.953 145.229 330.694 146.533 330.19 147.75C329.686 148.966 328.947 150.072 328.016 151.003C327.085 151.934 325.979 152.673 324.763 153.177C323.546 153.681 322.242 153.94 320.925 153.94Z" fill="#CCCCCC"/>
<path id="Vector_30" d="M220.119 38.356C228.572 38.356 235.424 31.5034 235.424 23.0504C235.424 14.5973 228.572 7.74469 220.119 7.74469C211.666 7.74469 204.813 14.5973 204.813 23.0504C204.813 31.5034 211.666 38.356 220.119 38.356Z" fill="white"/>
<path id="Vector_31" d="M220.119 0.883545C214.38 0.883558 208.876 3.16337 204.818 7.22147C200.76 11.2796 198.48 16.7835 198.48 22.5225C198.48 34.4734 220.119 73.7173 220.119 73.7173C220.119 73.7173 241.758 34.4734 241.758 22.5225C241.758 16.7835 239.478 11.2796 235.42 7.22145C231.362 3.16335 225.858 0.883545 220.119 0.883545ZM220.119 33.0782C218.135 33.0782 216.197 32.4901 214.548 31.3882C212.898 30.2863 211.613 28.7202 210.854 26.8878C210.095 25.0555 209.897 23.0392 210.284 21.094C210.67 19.1488 211.626 17.362 213.028 15.9595C214.43 14.5571 216.217 13.6021 218.162 13.2151C220.108 12.8282 222.124 13.0268 223.956 13.7858C225.789 14.5448 227.355 15.8301 228.457 17.4792C229.558 19.1282 230.147 21.067 230.147 23.0503C230.147 24.3672 229.887 25.6712 229.383 26.8878C228.879 28.1045 228.141 29.21 227.21 30.1411C226.278 31.0723 225.173 31.8109 223.956 32.3149C222.74 32.8188 221.436 33.0782 220.119 33.0782Z" fill="#CCCCCC"/>
<path id="Vector_32" d="M259.174 241.552C267.628 241.552 274.48 234.699 274.48 226.246C274.48 217.793 267.628 210.941 259.174 210.941C250.721 210.941 243.869 217.793 243.869 226.246C243.869 234.699 250.721 241.552 259.174 241.552Z" fill="white"/>
<path id="Vector_33" d="M259.174 204.079C253.435 204.079 247.932 206.359 243.873 210.417C239.815 214.475 237.536 219.979 237.536 225.718C237.536 237.669 259.174 276.913 259.174 276.913C259.174 276.913 280.814 237.669 280.814 225.718C280.814 222.877 280.254 220.063 279.166 217.437C278.079 214.812 276.485 212.427 274.476 210.417C272.466 208.408 270.081 206.814 267.455 205.727C264.83 204.639 262.016 204.079 259.174 204.079ZM259.174 236.274C257.191 236.274 255.252 235.686 253.603 234.584C251.954 233.482 250.669 231.916 249.91 230.084C249.151 228.251 248.952 226.235 249.339 224.29C249.726 222.345 250.681 220.558 252.084 219.155C253.486 217.753 255.273 216.798 257.218 216.411C259.163 216.024 261.18 216.223 263.012 216.982C264.844 217.741 266.411 219.026 267.512 220.675C268.614 222.324 269.202 224.263 269.202 226.246C269.202 227.563 268.943 228.867 268.439 230.084C267.935 231.3 267.196 232.406 266.265 233.337C265.334 234.268 264.229 235.007 263.012 235.511C261.795 236.015 260.491 236.274 259.174 236.274Z" fill="#3F3D56"/>
<path id="Vector_34" d="M130.924 123.857C139.377 123.857 146.229 117.004 146.229 108.551C146.229 100.098 139.377 93.2453 130.924 93.2453C122.471 93.2453 115.618 100.098 115.618 108.551C115.618 117.004 122.471 123.857 130.924 123.857Z" fill="white"/>
<path id="Vector_35" d="M130.924 86.3842C125.185 86.3842 119.681 88.664 115.623 92.7221C111.564 96.7802 109.285 102.284 109.285 108.023C109.285 119.974 130.924 159.218 130.924 159.218C130.924 159.218 152.563 119.974 152.563 108.023C152.563 102.284 150.283 96.7802 146.225 92.7221C142.167 88.664 136.663 86.3842 130.924 86.3842ZM130.924 118.579C128.94 118.579 127.002 117.991 125.352 116.889C123.703 115.787 122.418 114.221 121.659 112.388C120.9 110.556 120.702 108.54 121.089 106.595C121.475 104.649 122.43 102.863 123.833 101.46C125.235 100.058 127.022 99.1027 128.967 98.7158C130.913 98.3288 132.929 98.5274 134.761 99.2864C136.594 100.045 138.16 101.331 139.262 102.98C140.363 104.629 140.952 106.568 140.952 108.551C140.952 109.868 140.692 111.172 140.188 112.388C139.684 113.605 138.946 114.711 138.014 115.642C137.083 116.573 135.978 117.312 134.761 117.815C133.545 118.319 132.241 118.579 130.924 118.579Z" fill="#3F3D56"/>
<path id="Vector_36" d="M282.397 81.1063C290.85 81.1063 297.703 74.2538 297.703 65.8007C297.703 57.3476 290.85 50.495 282.397 50.495C273.944 50.495 267.091 57.3476 267.091 65.8007C267.091 74.2538 273.944 81.1063 282.397 81.1063Z" fill="white"/>
<path id="Vector_37" d="M282.397 43.6339C276.658 43.6339 271.154 45.9137 267.096 49.9718C263.038 54.0299 260.758 59.5339 260.758 65.2729C260.758 77.2238 282.397 116.468 282.397 116.468C282.397 116.468 304.036 77.2238 304.036 65.2729C304.036 59.5339 301.756 54.0299 297.698 49.9718C293.64 45.9137 288.136 43.6339 282.397 43.6339ZM282.397 75.8285C280.414 75.8285 278.475 75.2404 276.826 74.1385C275.177 73.0367 273.891 71.4705 273.132 69.6382C272.373 67.8058 272.175 65.7896 272.562 63.8443C272.949 61.8991 273.904 60.1123 275.306 58.7099C276.709 57.3075 278.495 56.3524 280.441 55.9655C282.386 55.5786 284.402 55.7771 286.234 56.5361C288.067 57.2951 289.633 58.5804 290.735 60.2295C291.837 61.8786 292.425 63.8174 292.425 65.8007C292.425 68.4602 291.368 71.0109 289.488 72.8914C287.607 74.772 285.056 75.8285 282.397 75.8285V75.8285Z" fill="#3F3D56"/>
</g>
</svg>
