<svg width="998" height="451" viewBox="0 0 998 451" fill="none" xmlns="http://www.w3.org/2000/svg">
<rect width="998" height="451" fill="#E5E5E5"/>
<g id="server 1" clip-path="url(#clip0)">
<path id="Vector" d="M902.151 181.558H871.992V285.956H902.151V181.558Z" fill="#F2F2F2"/>
<path id="Vector_2" d="M922.068 266.317L848.715 179.052L701.475 180.398L612.156 267.396L613.961 268.556H613.316V449.513H921.871V268.556L922.068 266.317Z" fill="#F2F2F2"/>
<path id="Vector_3" d="M848.792 179.238L757.154 286.674V449.513H921.871V266.236L848.792 179.238Z" fill="#E6E6E6"/>
<path id="Vector_4" d="M856.912 359.461H823.272V389.194H856.912V359.461Z" fill="#3F3D56"/>
<path id="Vector_5" d="M856.912 307.996H823.272V337.257H856.912V307.996Z" fill="#3F3D56"/>
<path id="Vector_6" d="M856.912 359.461H823.272V389.194H856.912V359.461Z" fill="white"/>
<path id="Vector_7" d="M856.912 307.996H823.272V337.257H856.912V307.996Z" fill="white"/>
<path id="Vector_8" d="M707.416 351.571H673.777V381.305H707.416V351.571Z" fill="white"/>
<path id="Vector_9" d="M707.416 300.106H673.777V329.368H707.416V300.106Z" fill="white"/>
<path id="Vector_10" d="M664.151 181.558H633.992V285.956H664.151V181.558Z" fill="#F2F2F2"/>
<path id="Vector_11" d="M684.068 266.317L610.715 179.052L463.475 180.398L374.156 267.396L375.961 268.556H375.316V449.513H683.871V268.556L684.068 266.317Z" fill="#F2F2F2"/>
<path id="Vector_12" d="M610.792 179.238L519.154 286.674V449.513H683.871V266.236L610.792 179.238Z" fill="#E6E6E6"/>
<path id="Vector_13" d="M618.912 359.461H585.272V389.194H618.912V359.461Z" fill="#3F3D56"/>
<path id="Vector_14" d="M618.912 307.996H585.272V337.257H618.912V307.996Z" fill="#3F3D56"/>
<path id="Vector_15" d="M618.912 359.461H585.272V389.194H618.912V359.461Z" fill="white"/>
<path id="Vector_16" d="M618.912 307.996H585.272V337.257H618.912V307.996Z" fill="white"/>
<path id="Vector_17" d="M469.416 351.571H435.777V381.305H469.416V351.571Z" fill="white"/>
<path id="Vector_18" d="M469.416 300.106H435.777V329.368H469.416V300.106Z" fill="white"/>
<path id="Vector_19" d="M420.454 91.4602H380.154V230.961H420.454V91.4602Z" fill="#F2F2F2"/>
<path id="Vector_20" d="M447.068 204.718L349.051 88.112L152.302 89.91L32.951 206.161L35.362 207.711H34.501V449.513H446.804V207.711L447.068 204.718Z" fill="#F2F2F2"/>
<path id="Vector_21" d="M349.153 88.36L226.702 231.921V449.513H446.804V204.611L349.153 88.36Z" fill="#E6E6E6"/>
<path id="Vector_22" d="M360.003 329.181H315.053V368.912H360.003V329.181Z" fill="#3F3D56"/>
<path id="Vector_23" d="M360.003 260.412H315.053V299.512H360.003V260.412Z" fill="#3F3D56"/>
<path id="Vector_24" d="M360.003 329.181H315.053V368.912H360.003V329.181Z" fill="white"/>
<path id="Vector_25" d="M360.003 260.412H315.053V299.512H360.003V260.412Z" fill="white"/>
<path id="Vector_26" d="M160.241 318.639H115.29V358.37H160.241V318.639Z" fill="white"/>
<path id="Vector_27" d="M160.241 249.869H115.29V288.97H160.241V249.869Z" fill="white"/>
<path id="Vector_28" d="M963.951 448.62H0V450.62H963.951V448.62Z" fill="#3F3D56"/>
<g id="left-small-tree">
<path id="Vector_29" d="M151.872 411.846C167.943 411.846 180.972 385.264 180.972 352.472C180.972 319.68 167.943 293.098 151.872 293.098C135.801 293.098 122.773 319.68 122.773 352.472C122.773 385.264 135.801 411.846 151.872 411.846Z" fill="#3F3D56"/>
<path id="Vector_30" d="M154.559 449.658C142.905 379.733 154.442 310.06 154.56 309.365L156.827 309.749C156.71 310.441 145.239 379.748 156.828 449.281L154.559 449.658Z" fill="#6C63FF"/>
<path id="Vector_31" d="M177.491 339.705L151.178 353.78L152.262 355.807L178.576 341.733L177.491 339.705Z" fill="#6C63FF"/>
<path id="Vector_32" d="M124.491 346.755L123.406 348.783L149.716 362.865L150.802 360.838L124.491 346.755Z" fill="#6C63FF"/>
</g>
<g id="left-med-tree">
<path id="Vector_33" d="M81.9552 377.033C113.388 377.033 138.87 325.04 138.87 260.903C138.87 196.767 113.388 144.774 81.9552 144.774C50.522 144.774 25.0403 196.767 25.0403 260.903C25.0403 325.04 50.522 377.033 81.9552 377.033Z" fill="#6C63FF"/>
<path id="Vector_34" d="M88.2946 450.808C65.53 314.223 88.065 178.135 88.2952 176.776L90.5622 177.16C90.3326 178.516 67.8638 314.237 90.5627 450.431L88.2946 450.808Z" fill="#3F3D56"/>
<path id="Vector_35" d="M132.582 236.901L81.1147 264.43L82.1994 266.458L133.667 238.928L132.582 236.901Z" fill="#3F3D56"/>
<path id="Vector_36" d="M27.8824 250.691L26.7972 252.719L78.2572 280.262L79.3424 278.235L27.8824 250.691Z" fill="#3F3D56"/>
</g>
<g id="left-big-tree">
<path id="Vector_37" d="M216.754 349.922C259.767 349.922 294.637 278.774 294.637 191.008C294.637 103.242 259.767 32.0943 216.754 32.0943C173.74 32.0943 138.87 103.242 138.87 191.008C138.87 278.774 173.74 349.922 216.754 349.922Z" fill="#6C63FF"/>
<path id="Vector_38" d="M225.847 450.808C194.707 263.971 225.532 77.8159 225.847 75.9576L228.114 76.3416C227.8 78.1965 197.041 263.985 228.115 450.431L225.847 450.808Z" fill="#3F3D56"/>
<path id="Vector_39" d="M286.233 158.535L215.803 196.207L216.888 198.235L287.317 160.563L286.233 158.535Z" fill="#3F3D56"/>
<path id="Vector_40" d="M142.559 177.407L141.474 179.435L211.893 217.125L212.979 215.097L142.559 177.407Z" fill="#3F3D56"/>
</g>
<g id="right-small-tree">
<path id="Vector_41" d="M871.029 411.846C887.1 411.846 900.129 385.264 900.129 352.472C900.129 319.68 887.1 293.098 871.029 293.098C854.958 293.098 841.93 319.68 841.93 352.472C841.93 385.264 854.958 411.846 871.029 411.846Z" fill="#3F3D56"/>
<path id="Vector_42" d="M868.342 449.658C879.997 379.733 868.459 310.06 868.342 309.365L866.075 309.749C866.192 310.441 877.663 379.748 866.074 449.281L868.342 449.658Z" fill="#6C63FF"/>
<path id="Vector_43" d="M845.41 339.705L844.325 341.733L870.639 355.807L871.724 353.779L845.41 339.705Z" fill="#6C63FF"/>
<path id="Vector_44" d="M898.411 346.755L872.1 360.838L873.185 362.865L899.496 348.783L898.411 346.755Z" fill="#6C63FF"/>
</g>
<g id="right-med-tree">
<path id="Vector_45" d="M940.946 377.033C972.38 377.033 997.861 325.04 997.861 260.903C997.861 196.767 972.38 144.774 940.946 144.774C909.513 144.774 884.032 196.767 884.032 260.903C884.032 325.04 909.513 377.033 940.946 377.033Z" fill="#6C63FF"/>
<path id="Vector_46" d="M934.607 450.808C957.371 314.223 934.837 178.135 934.606 176.776L932.339 177.16C932.569 178.516 955.038 314.237 932.339 450.431L934.607 450.808Z" fill="#3F3D56"/>
<path id="Vector_47" d="M890.319 236.901L889.234 238.928L940.702 266.458L941.787 264.43L890.319 236.901Z" fill="#3F3D56"/>
<path id="Vector_48" d="M995.019 250.691L943.559 278.235L944.644 280.262L996.104 252.719L995.019 250.691Z" fill="#3F3D56"/>
</g>
<g id="right-big-tree">
<path id="Vector_49" d="M806.148 349.922C849.162 349.922 884.032 278.774 884.032 191.008C884.032 103.242 849.162 32.0943 806.148 32.0943C763.134 32.0943 728.265 103.242 728.265 191.008C728.265 278.774 763.134 349.922 806.148 349.922Z" fill="#6C63FF"/>
<path id="Vector_50" d="M797.055 450.808C828.195 263.971 797.369 77.8159 797.054 75.9576L794.787 76.3416C795.102 78.1965 825.861 263.985 794.787 450.431L797.055 450.808Z" fill="#3F3D56"/>
<path id="Vector_51" d="M736.669 158.535L735.584 160.563L806.013 198.235L807.098 196.207L736.669 158.535Z" fill="#3F3D56"/>
<path id="Vector_52" d="M880.342 177.407L809.923 215.097L811.008 217.124L881.427 179.434L880.342 177.407Z" fill="#3F3D56"/>
</g>
<path id="Vector_53" d="M750.191 437.052C747.744 437.052 745.34 437.697 743.221 438.922C741.07 436.976 738.4 435.697 735.536 435.24C732.671 434.782 729.736 435.166 727.085 436.344C724.435 437.523 722.184 439.446 720.605 441.879C719.026 444.312 718.187 447.151 718.191 450.052H764.14C763.89 446.523 762.312 443.22 759.723 440.808C757.135 438.395 753.729 437.054 750.191 437.052V437.052Z" fill="#3F3D56"/>
<path id="Vector_54" d="M283.191 437.052C280.744 437.052 278.34 437.697 276.221 438.922C274.07 436.976 271.4 435.697 268.536 435.24C265.671 434.782 262.736 435.166 260.085 436.344C257.435 437.523 255.184 439.446 253.605 441.879C252.026 444.312 251.187 447.151 251.191 450.052H297.14C296.89 446.523 295.312 443.22 292.723 440.808C290.135 438.395 286.729 437.054 283.191 437.052V437.052Z" fill="#3F3D56"/>
<path id="Vector_55" d="M522.191 437.052C519.744 437.052 517.34 437.697 515.221 438.922C513.07 436.976 510.4 435.697 507.536 435.24C504.671 434.782 501.736 435.166 499.085 436.344C496.435 437.523 494.184 439.446 492.605 441.879C491.026 444.312 490.187 447.151 490.191 450.052H536.14C535.89 446.523 534.312 443.22 531.723 440.808C529.135 438.395 525.729 437.054 522.191 437.052V437.052Z" fill="#3F3D56"/>
<path id="Vector_56" d="M471.759 404.228H339.191V408.504H359.866V449.13H364.142V408.504H444.669V449.13H448.946V408.504H471.759V404.228Z" fill="#3F3D56"/>
<path id="Vector_57" d="M472.02 391.434H339.452V395.71H472.02V391.434Z" fill="#3F3D56"/>
<path id="Vector_58" d="M472.02 380.743H339.452V385.019H472.02V380.743Z" fill="#3F3D56"/>
<path id="Vector_59" d="M472.02 370.052H339.452V374.328H472.02V370.052Z" fill="#3F3D56"/>
<path id="Vector_60" d="M678.759 404.228H546.191V408.504H566.866V449.13H571.142V408.504H651.669V449.13H655.946V408.504H678.759V404.228Z" fill="#3F3D56"/>
<path id="Vector_61" d="M679.02 391.434H546.452V395.71H679.02V391.434Z" fill="#3F3D56"/>
<path id="Vector_62" d="M679.02 380.743H546.452V385.019H679.02V380.743Z" fill="#3F3D56"/>
<path id="Vector_63" d="M679.02 370.052H546.452V374.328H679.02V370.052Z" fill="#3F3D56"/>
</g>
<defs>
<clipPath id="clip0">
<rect width="997.861" height="450.808" fill="white"/>
</clipPath>
</defs>
</svg>
